PathFileType	4	(X/Y/Z)	0_coords_data.trc
DataRate	CameraRate	NumFrames	NumMarkers	Units	OrigDataRate	OrigDataStartFrame	OrigNumFrames
30.0	30.0	6	21	m	30.0	1	53
Frame#	Time	THUMB_TIP	THUMB_IP	THUMB_MCP	THUMB_CMC	INDEX_TIP	INDEX_DIP	INDEX_PIP	INDEX_MCP	MIDDLE_TIP	MIDDLE_DIP	MIDDLE_PIP	MIDDLE_MCP	RING_TIP	RING_DIP	RING_PIP	RING_MCP	PINKY_TIP	PINKY_DIP	PINKY_PIP	PINKY_MCP	WRIST
X1	Y1	Z1	X2	Y2	Z2	X3	Y3	Z3	X4	Y4	Z4	X5	Y5	Z5	X6	Y6	Z6	X7	Y7	Z7	X8	Y8	Z8	X9	Y9	Z9	X10	Y10	Z10	X11	Y11	Z11	X12	Y12	Z12	X13	Y13	Z13	X14	Y14	Z14	X15	Y15	Z15	X16	Y16	Z16	X17	Y17	Z17	X18	Y18	Z18	X19	Y19	Z19	X20	Y20	Z20	X21	Y21	Z21
0	-2.749317978547796e-18	0.5423110893632328	-0.016919012309249915	-0.13367937177583997	0.5236189837033143	-0.014989347351310467	-0.12045509186544234	0.4928722614449663	-0.017865457433664356	-0.11655803385173713	0.47664749946931895	-0.028018583062661417	-0.07626459593939969	0.5719010051314791	0.046503831961504816	-0.15160512599586434	0.5567413355133515	0.04020232344954172	-0.1439582045536844	0.535627715407174	0.03313439252804423	-0.13228476326583088	0.5013162646447468	0.027255862487486904	-0.10775308323490362	0.521128953789568	-0.00701899808029427	-0.11514938075588513	0.5367850127964109	-0.003641280157975546	-0.12360389659131282	0.5487801577646451	0.02239922044227788	-0.11836764070764494	0.5160633273078963	0.026420422955754252	-0.08820828301869604	0.5311244347263324	-0.01435155110471309	-0.10408514090027207	0.5472995991871605	-0.011765425850498945	-0.11161348805185037	0.560107154094537	0.00815401955473144	-0.10390880044996886	0.5304920023238658	0.011010470981156761	-0.07653172418443985	0.5971861072429295	0.02162311596332095	-0.08523072439145948	0.5823945613930049	0.01370681551441083	-0.08183331970962315	0.5636221571499136	0.005535434734607103	-0.0771817184707572	0.5326856369231342	-0.012122247951251164	-0.07152297219409703	0.4622830810018608	-0.023011742144276925	-0.051989820119430985
1	0.03333333333333339	0.5424642044126028	-0.01689641495771599	-0.13343426534448863	0.5236624203012272	-0.01500844992947259	-0.1203603025832842	0.49288833733804727	-0.017668066988928866	-0.11652595063381857	0.4765814031637672	-0.027991753709312783	-0.07630909607835804	0.572315999523288	0.046504017105746365	-0.15094874436798267	0.5571038055884934	0.04026953631978797	-0.14335134974747568	0.5358997125740835	0.033276484340293844	-0.13179741117881633	0.5015103437144334	0.027565485700991155	-0.10733536101991073	0.521176489434517	-0.0070505314125493546	-0.1149655548022234	0.5368025717305351	-0.0036182164527864824	-0.12345347363401346	0.5488297422702024	0.0223671578766077	-0.11802051497679678	0.5162070883416898	0.026572377639866418	-0.08778433634253155	0.5312254175044077	-0.014457981443432855	-0.10399250918636804	0.5474076877922006	-0.01184149178904309	-0.1114950494375953	0.5601719214146745	0.008071318233985936	-0.10370182699641853	0.5306013392491998	0.010970903578757185	-0.07628114302932365	0.598059217386959	0.020445791962717064	-0.08367458469725117	0.5831083236566944	0.012631675364678019	-0.08077452289470585	0.5641186945411225	0.004654598678999089	-0.07670361972663303	0.5327264408573856	-0.01232140213916011	-0.07148583706751721	0.4622830810018609	-0.023011742144276925	-0.051989820119430985
2	0.06666666666666676	0.5425320841612314	-0.016966273610674876	-0.13331158187272046	0.5236506957697556	-0.015082594108168867	-0.12035222525512257	0.49285986663603587	-0.01755820704366645	-0.11652911371454872	0.47650966091353775	-0.02797650172499422	-0.07635424708421606	0.572568352346236	0.04643445310606836	-0.1505475848908411	0.5573192353001898	0.04026155988037311	-0.14297395837904697	0.5360538423663713	0.033339012125200185	-0.13149043849411382	0.5016196341514799	0.02778602926931434	-0.10705509974025676	0.5211737804083818	-0.00710984112045715	-0.11488922166750035	0.5367730517287088	-0.0036521631549513156	-0.12341607321784864	0.5488157919893785	0.022294574587768012	-0.11783496602262325	0.5162958121299628	0.026671117107943565	-0.08751261937015758	0.5312533339015397	-0.014611845187830597	-0.10400356368884095	0.5474352454289272	-0.011939325642542742	-0.11148710420118282	0.5601658185060064	0.007977752396862214	-0.10364985401368709	0.5306690199697154	0.010924775759939886	-0.07615485877078979	0.59865017479375	0.019571322480905096	-0.08253970397253488	0.5835942657961757	0.011826013477048924	-0.0800237960466477	0.5644566699884113	0.003988505724056068	-0.07639916945616798	0.5327428249898535	-0.01248102954766156	-0.07151348686914871	0.4622830810018609	-0.023011742144276925	-0.05198982011943096
3	0.10000000000000014	0.542529465949094	-0.017112135062495704	-0.13329255098071047	0.5235937389768893	-0.015201836397909674	-0.12041664312742864	0.492794789328736	-0.017522822868667298	-0.116562071507511	0.4764349216628657	-0.027970897828306418	-0.07639887368172812	0.5726821695544972	0.04630754881198351	-0.15036823290101028	0.557409610939101	0.04019116231082548	-0.14279599614376756	0.5361079745238297	0.033334786630511426	-0.1313399832438976	0.5016573700216262	0.027930518119717085	-0.10689441462101623	0.5211291664202126	-0.007191579638618717	-0.11490459687229831	0.5367046730865763	-0.0037332369167475954	-0.12347451272393514	0.5487493244262431	0.022189700285819403	-0.11778792755376205	0.5163382269746627	0.026724966238629355	-0.08737247020521244	0.5312204225081547	-0.014802799039092596	-0.10409991659560397	0.5473952608706196	-0.012053380619746312	-0.11157088054301348	0.5601001785179619	0.007877914672163866	-0.10372814412254558	0.5307013434785911	0.010874594649314062	-0.07613377438083166	0.5990162503635208	0.018977091252071088	-0.08177763263084495	0.583897497365606	0.011267863790239474	-0.07954355122458823	0.5646652774031165	0.00351832065280272	-0.07624532208224172	0.532738853257242	-0.012604700174386696	-0.07159396833695941	0.4622830810018609	-0.023011742144276925	-0.05198982011943101
4	0.13333333333333353	0.5424699792424795	-0.01731804984117058	-0.13335785945981013	0.5235008615845366	-0.015356628914713233	-0.12053891241926212	0.4927007464054193	-0.017549226091983228	-0.11661903709326774	0.47635983325583875	-0.02797303637579973	-0.07644182045740724	0.5726804558202342	0.04613486872457384	-0.1503759705376103	0.5573959682626085	0.040070301481516635	-0.14278614417232202	0.5360792459791913	0.033275956514289884	-0.1313212385661694	0.5016362486750279	0.02801129177780981	-0.10683452102547286	0.5210507552576173	-0.0072905568125011255	-0.1149948268741593	0.5366053358698779	-0.003851710819192833	-0.12361047311869594	0.5486408215951847	0.022060384357335205	-0.1178554790336866	0.5163424964921205	0.026741741051963752	-0.08734235044885544	0.5311386019635601	-0.015020421353784397	-0.10426245707809675	0.5473004239654746	-0.012178203870247484	-0.11172685989109593	0.5599859930603259	0.007776178019675173	-0.10391155700951285	0.530704207784788	0.010822637185779693	-0.07619843788469116	0.5992031445342917	0.018633737959246333	-0.08133615541916181	0.5840542970201233	0.010930349910563242	-0.07929404093562281	0.5647688367845719	0.0032219348777879353	-0.07621778018831193	0.5327184430301525	-0.01269606436118964	-0.0717152240904278	0.4622830810018609	-0.023011742144276925	-0.05198982011943096
5	0.1666666666666669	0.5423665828031448	-0.017568405339218218	-0.1334878918078107	0.5233810237734663	-0.015537676761657515	-0.12070412515729353	0.49258520451457233	-0.017624962614968875	-0.11669404361945629	0.4762870510431366	-0.027981031753862073	-0.07648195556857301	0.5725854992507841	0.04592742936555011	-0.15053528020333634	0.5572987238915216	0.03991040384430228	-0.1429122950274293	0.5359843187148341	0.03317424019447818	-0.13140881449991987	0.5015686033615557	0.028040229542912853	-0.10685608419651485	0.5209465458839264	-0.0074016726184293335	-0.11514233973720045	0.5364827936021523	-0.0039979186487434926	-0.12380487203161442	0.5485004615544375	0.021914265864738935	-0.11801316237661094	0.5163164259259256	0.026728935272736565	-0.08740017934400918	0.5310196208456345	-0.01525417926461281	-0.1044716611817792	0.547163328031763	-0.012308391319957424	-0.11193510888868155	0.5598341376302212	0.007676790646717391	-0.10417475677820881	0.5306833034363834	0.010771054109835865	-0.07632919638836952	0.5992476596708434	0.01850768413467141	-0.08116140377149103	0.5840942277881985	0.010783624531502445	-0.07923464342709524	0.5647879453476994	0.0030753062136554266	-0.07629163373658882	0.5326854521864698	-0.01275882247572896	-0.07186515065391241	0.4622830810018609	-0.023011742144276925	-0.05198982011943096
